<mxfile host="65bd71144e">
    <diagram id="vVWIKjnxh2c1IJgyn5Mo" name="Page-1">
        <mxGraphModel dx="1049" dy="624" grid="0" gridSize="10" guides="1" tooltips="1" connect="1" arrows="1" fold="1" page="1" pageScale="1" pageWidth="850" pageHeight="1100" background="none" math="0" shadow="0">
            <root>
                <mxCell id="0"/>
                <mxCell id="1" parent="0"/>
                <mxCell id="2" value="" style="whiteSpace=wrap;html=1;fillColor=#cce5ff;fontColor=#ffffff;strokeColor=#36393D;" vertex="1" parent="1">
                    <mxGeometry x="10" y="210" width="830" height="590" as="geometry"/>
                </mxCell>
            </root>
        </mxGraphModel>
    </diagram>
</mxfile>